<svg xmlns="http://www.w3.org/2000/svg" width="321.441" height="89" viewBox="0 0 321.441 89">
  <g id="Group_13" data-name="Group 13" transform="translate(-6183.28 2309.318)">
    <g id="Group_12" data-name="Group 12" transform="translate(5267.397 -4962.248)">
      <text id="litbooks" transform="translate(977.323 2722.929)" fill="#000" font-size="70" font-family="Circular-Bold, Circular" font-weight="700"><tspan x="0" y="0">litbooks</tspan></text>
    </g>
    <path id="Icon_metro-fire" data-name="Icon metro-fire" d="M19.252,61.458C15.284,53.2,17.4,48.472,20.446,44.015a27.789,27.789,0,0,0,4.2-9.712,11.411,11.411,0,0,1,1.575,8.75c4.638-5.162,5.513-13.387,4.813-16.537C41.516,33.841,46,49.7,39.959,61.458,72.071,43.289,47.946,16.1,43.746,13.041c1.4,3.062,1.665,8.246-1.163,10.762C37.8,5.649,25.959,1.928,25.959,1.928c1.4,9.362-5.075,19.6-11.319,27.25-.219-3.733-.452-6.309-2.416-9.882C11.784,26.078,6.6,31.606,5.2,38.4,3.3,47.6,6.622,54.34,19.252,61.458Z" transform="translate(6178.579 -2300.68)" fill="#E84855"/>
  </g>
</svg>
